<mxfile host="app.diagrams.net" agent="Mozilla/5.0 (Windows NT 10.0; Win64; x64) AppleWebKit/537.36 (KHTML, like Gecko) Chrome/131.0.0.0 Safari/537.36" version="26.0.6">
  <diagram id="R2lEEEUBdFMjLlhIrx00" name="Page-1">
    <mxGraphModel dx="1050" dy="1657" grid="1" gridSize="10" guides="1" tooltips="1" connect="1" arrows="1" fold="1" page="1" pageScale="1" pageWidth="850" pageHeight="1100" math="0" shadow="0" extFonts="Permanent Marker^https://fonts.googleapis.com/css?family=Permanent+Marker">
      <root>
        <mxCell id="0" />
        <mxCell id="1" parent="0" />
        <mxCell id="CZUOVAuEZjuNVU-PJ07F-1" value="alleys" style="swimlane;whiteSpace=wrap;html=1;" vertex="1" parent="1">
          <mxGeometry x="140" y="-20" width="200" height="70" as="geometry" />
        </mxCell>
        <mxCell id="CZUOVAuEZjuNVU-PJ07F-3" value="id: int&lt;div&gt;num: int&lt;/div&gt;" style="rounded=0;whiteSpace=wrap;html=1;align=left;" vertex="1" parent="CZUOVAuEZjuNVU-PJ07F-1">
          <mxGeometry y="20" width="200" height="50" as="geometry" />
        </mxCell>
        <mxCell id="CZUOVAuEZjuNVU-PJ07F-4" value="items" style="swimlane;whiteSpace=wrap;html=1;" vertex="1" parent="1">
          <mxGeometry x="450" y="-20" width="200" height="220" as="geometry" />
        </mxCell>
        <mxCell id="CZUOVAuEZjuNVU-PJ07F-5" value="&lt;div style=&quot;&quot;&gt;&lt;span style=&quot;background-color: transparent; color: light-dark(rgb(0, 0, 0), rgb(255, 255, 255));&quot;&gt;&lt;br&gt;&lt;/span&gt;&lt;/div&gt;&lt;div style=&quot;&quot;&gt;&lt;span style=&quot;background-color: transparent; color: light-dark(rgb(0, 0, 0), rgb(255, 255, 255));&quot;&gt;id: int&lt;/span&gt;&lt;span style=&quot;background-color: transparent; color: light-dark(rgb(0, 0, 0), rgb(255, 255, 255));&quot;&gt;&amp;nbsp;&lt;/span&gt;&lt;/div&gt;&lt;div style=&quot;&quot;&gt;&lt;span style=&quot;background-color: transparent; color: light-dark(rgb(0, 0, 0), rgb(255, 255, 255));&quot;&gt;alley_id: int&lt;/span&gt;&lt;/div&gt;&lt;div&gt;name: string&lt;/div&gt;&lt;div&gt;specs: {&lt;/div&gt;&lt;div&gt;&amp;nbsp; &amp;nbsp; cut_date: datetime&lt;/div&gt;&lt;div&gt;&amp;nbsp; &amp;nbsp; plant_date: datetime&lt;/div&gt;&lt;div&gt;&amp;nbsp; &amp;nbsp; species: string&lt;/div&gt;&lt;div&gt;&amp;nbsp; &amp;nbsp; is_swimming_allowed: boolean&lt;/div&gt;&lt;div&gt;&amp;nbsp; &amp;nbsp; material: string&lt;/div&gt;&lt;div&gt;&amp;nbsp; }&lt;/div&gt;&lt;div&gt;&amp;nbsp; type: string&lt;/div&gt;" style="rounded=0;whiteSpace=wrap;html=1;align=left;" vertex="1" parent="CZUOVAuEZjuNVU-PJ07F-4">
          <mxGeometry y="20" width="200" height="200" as="geometry" />
        </mxCell>
        <mxCell id="CZUOVAuEZjuNVU-PJ07F-6" value="species" style="swimlane;whiteSpace=wrap;html=1;" vertex="1" parent="1">
          <mxGeometry x="140" y="103" width="200" height="80" as="geometry" />
        </mxCell>
        <mxCell id="CZUOVAuEZjuNVU-PJ07F-7" value="name: string" style="rounded=0;whiteSpace=wrap;html=1;align=left;" vertex="1" parent="CZUOVAuEZjuNVU-PJ07F-6">
          <mxGeometry y="20" width="200" height="60" as="geometry" />
        </mxCell>
        <mxCell id="CZUOVAuEZjuNVU-PJ07F-8" value="" style="endArrow=none;html=1;rounded=0;entryX=0;entryY=0.5;entryDx=0;entryDy=0;exitX=1;exitY=0.5;exitDx=0;exitDy=0;edgeStyle=orthogonalEdgeStyle;" edge="1" parent="1" source="CZUOVAuEZjuNVU-PJ07F-1" target="CZUOVAuEZjuNVU-PJ07F-5">
          <mxGeometry width="50" height="50" relative="1" as="geometry">
            <mxPoint x="400" y="200" as="sourcePoint" />
            <mxPoint x="450" y="150" as="targetPoint" />
          </mxGeometry>
        </mxCell>
        <mxCell id="CZUOVAuEZjuNVU-PJ07F-9" value="" style="endArrow=none;html=1;rounded=0;entryX=0.008;entryY=0.713;entryDx=0;entryDy=0;entryPerimeter=0;exitX=1;exitY=0.5;exitDx=0;exitDy=0;edgeStyle=orthogonalEdgeStyle;" edge="1" parent="1" source="CZUOVAuEZjuNVU-PJ07F-6" target="CZUOVAuEZjuNVU-PJ07F-5">
          <mxGeometry width="50" height="50" relative="1" as="geometry">
            <mxPoint x="400" y="200" as="sourcePoint" />
            <mxPoint x="450" y="150" as="targetPoint" />
          </mxGeometry>
        </mxCell>
      </root>
    </mxGraphModel>
  </diagram>
</mxfile>
